<?xml version="1.0" standalone="no"?>
<!DOCTYPE svg PUBLIC "-//W3C//DTD SVG 20010904//EN"
 "http://www.w3.org/TR/2001/REC-SVG-20010904/DTD/svg10.dtd">
<svg version="1.0" xmlns="http://www.w3.org/2000/svg"
 width="1168.000000pt" height="1168.000000pt" viewBox="0 0 1168.000000 1168.000000"
 preserveAspectRatio="xMidYMid meet">
<metadata>
Created by potrace 1.14, written by Peter Selinger 2001-2017
</metadata>
<g transform="translate(0.000000,1168.000000) scale(0.100000,-0.100000)"
fill="#000000" stroke="none">
<path d="M4031 7273 c-90 -277 -992 -3077 -1005 -3121 l-7 -22 211 2 212 3
148 485 147 485 598 0 598 0 147 -485 146 -485 221 -3 221 -2 -77 237 c-42
131 -290 901 -551 1711 l-475 1472 -222 0 -222 0 -90 -277z m548 -1003 c128
-421 234 -773 237 -782 5 -17 -23 -18 -481 -18 -459 0 -486 1 -481 18 3 9 98
321 211 692 113 371 220 719 236 774 17 54 34 94 39 90 4 -5 112 -353 239
-774z"/>
<path d="M6080 5840 l0 -1710 186 0 187 0 -7 1103 c-3 606 -9 1214 -12 1351
-6 232 -6 248 11 245 12 -3 38 -59 89 -194 40 -104 202 -531 361 -947 l288
-758 158 0 c115 0 160 3 166 13 4 6 168 433 364 947 276 724 360 936 374 939
17 3 17 -7 11 -195 -3 -110 -9 -718 -12 -1351 l-7 -1153 187 0 186 0 0 1710 0
1710 -232 -2 -232 -3 -392 -1055 c-260 -701 -397 -1056 -407 -1058 -10 -2 -23
18 -41 65 -14 37 -192 514 -395 1058 l-369 990 -231 3 -231 2 0 -1710z"/>
<path d="M1335 6421 l-1010 -597 -3 -175 -2 -175 837 -494 c461 -272 920 -542
1021 -601 l182 -108 0 227 -1 227 -815 450 c-750 414 -815 452 -812 474 3 20
117 87 816 474 l812 450 0 223 c0 123 -3 224 -7 223 -5 -1 -462 -270 -1018
-598z"/>
<path d="M9332 6794 l3 -226 810 -449 c698 -387 810 -452 810 -471 0 -20 -112
-85 -812 -473 l-813 -450 0 -222 c0 -123 3 -223 8 -223 4 1 459 267 1012 594
l1005 593 3 179 2 179 -991 585 c-545 322 -1002 591 -1016 598 l-23 13 2 -227z"/>
</g>
</svg>
